<svg id="layout_1" data-name="layout 1" xmlns="http://www.w3.org/2000/svg" viewBox="0 0 182.08 262.7"><defs><style>.cls-1{fill:#fff;}</style></defs><title>LOGO</title><path class="cls-1" d="M573,426.35a57.85,57.85,0,0,0-5.26-5.07,273.43,273.43,0,0,1,10.89-47.64,1.66,1.66,0,0,0,0-1.18,1.56,1.56,0,0,0-1.3-1.35,86.88,86.88,0,0,0-42.52,1.16c-3.12.89-6.42,1.88-8.89,4-2.39-2.14-5.58-3.16-8.64-4a86.89,86.89,0,0,0-43-1.28,1.56,1.56,0,0,0-1.3,1.35,1.66,1.66,0,0,0,0,1.19,273,273,0,0,1,11.36,51.33,79.65,79.65,0,0,0-11,11.66,85.2,85.2,0,0,0-8.92,14.25c-3.26,6.65-5.82,14.9-7.87,22.64a2.41,2.41,0,0,0,1.83,3c11,2.35,22,5.13,33.13,4.32a15.25,15.25,0,0,0,5.07-1,12.14,12.14,0,0,0,5.93-7.19,11,11,0,0,0-2.14-9.47c-.94-1.14-2.21-2.39-1.1-4l.15-.16c1.4-1.24,3.15-.92,4.72-1.42,3.54-1.13,4.51-5.84,3.59-9.44s-3.06-6.87-3.47-10.57a6.09,6.09,0,0,1,.39-3.26c1.21-2.58,4.56-3.16,7.41-3.41l13.85-1.19c2.54-.22,5.55-.75,6.38-3.3a4.16,4.16,0,0,0-.19-2.9c-1-2.44-3.54-3.7-5.65-4.92a27.26,27.26,0,0,0-8.38-3.21,7,7,0,0,1-3.23-1.62,6.85,6.85,0,0,1-2.21-4.59l.08-7.77a.9.9,0,0,0-.9-.9H500.71a.9.9,0,0,0-.9.9v8.1h-8.1a.9.9,0,0,0-.9.9v9.56c-1.06.74-2.09,1.51-3.1,2.31a277.1,277.1,0,0,0-10.63-47.94,84,84,0,0,1,24.22-1.23,81.17,81.17,0,0,1,12.83,2.28c3.67,1,7.91,1.86,10.4,5l0,0a1.57,1.57,0,0,0,2.6.14c2.41-3,6.41-3.9,10-4.84a81.24,81.24,0,0,1,13.27-2.4,84,84,0,0,1,24.22,1.23,276.73,276.73,0,0,0-10.14,44.36,61.47,61.47,0,0,0-12.7-7.18v-7.69a.9.9,0,0,0-.9-.9h-8.1v-8.1a.9.9,0,0,0-.9-.9H530.72a.9.9,0,0,0-.9.9v11.41a2.13,2.13,0,0,0,.35,1.17c.86,1.32,3.53,4.62,10.23,8.53a123,123,0,0,1,16.87,11.77c2.32,1.94,5,4.54,3.23,7.9a5.87,5.87,0,0,1-3.9,3,42.24,42.24,0,0,1-18.43.16c-5.84-1.26-11.88-3.75-17.56-1.92-2.72.87-5.36,3.35-4.84,6.16a6.8,6.8,0,0,0,1.57,2.93c5.06,6.26,13.77,8.11,17.37,15.31,1.62,3.23-.88,4.05-1.89,3.9-5-.72-9.46-3.19-14.32-4.39-2.2-.54-4.86-.68-6,2.08a5.37,5.37,0,0,0-.2,3.08A37.57,37.57,0,0,0,517.23,478a3.81,3.81,0,0,1-.05,4.21c-1.33,1.86-3.83,2.72-6.1,3a150,150,0,0,1-21.9,1.22,226.54,226.54,0,0,1-33.38-3.48,1.73,1.73,0,0,0-2,1.31c-1.59,6.7-2.76,11.72-3.69,12.83-3.35,4-9.89,3.56-14.68,1.53s-6.93-5.32-11.38-8c-3.44-2.09-9.37-1.52-8.6,7a26.54,26.54,0,0,0,2.87,9.71,41.3,41.3,0,0,0,17,17.39,25.88,25.88,0,0,0,9.74,3.27,19.31,19.31,0,0,0,6.3-.55,1.28,1.28,0,0,1,1.56.94,15.47,15.47,0,0,0,1.89,4.81,24.87,24.87,0,0,0,6.58,6.56,41.27,41.27,0,0,0,24.1,7.64c3.4,0,7.73-.45,10.82-1.89,3.33-1.56,8.22-7.73,3-10.64-4.37-2.43-9.6-3.21-13.55-6.26a11,11,0,0,1-4.19-8.39c-1-28.78,34.26-22.35,38.8-14.36l3.1,6.87c2.82,6.14,8,5.86,11.54,1.35l10.14-11.14a3.71,3.71,0,0,1,1.13-1c3.89-2.16,16.92-5.35,22.88-10.44,8.13-6.94,13-17.14,14.41-27.73C586.52,442.06,575.89,429.5,573,426.35Z" transform="translate(-408.84 -368.84)"/><path class="cls-1" d="M409,595.43a3.16,3.16,0,0,1-.07,1.67,1.48,1.48,0,1,0,2.85.79,6.39,6.39,0,0,0,.07-3.24,1.48,1.48,0,1,0-2.85.79Z" transform="translate(-408.84 -368.84)"/><path class="cls-1" d="M423.11,590.76a1.43,1.43,0,0,0,.46-1c.14-2.87.79-8.11-1.8-10.17a4.32,4.32,0,0,0-2.76-.77c.78-1.65,1.37-4,.47-5.56a2.33,2.33,0,0,0-2.59-.94c-.78.12-1.56.26-2.34.4.06-.43.11-.86.13-1.31.09-1.9-2.86-1.9-3,0a9.91,9.91,0,0,1-2.43,6.08c-1.24,1.43.84,3.53,2.09,2.09a13.51,13.51,0,0,0,2.34-3.78,1.62,1.62,0,0,0,.41,0l1.95-.34.73-.13a6.34,6.34,0,0,1,0,.81,5.74,5.74,0,0,1-.71,1.86,1.38,1.38,0,0,0-.16,1.09,23.27,23.27,0,0,0-4,1,1.46,1.46,0,0,0-.78.59,1.31,1.31,0,0,0-.75,1.27l.13,7.95a1.45,1.45,0,0,0,1,2.49l10.18-.55A1.44,1.44,0,0,0,423.11,590.76Zm-7.59-6.1-2.07.15,0-2.12c.68-.21,1.37-.4,2.07-.54Zm-2,3.1,2-.14a13.32,13.32,0,0,0,0,1.56l-2,.11Zm4.94,1.25c0-.31.09-1.06.09-1.29v-.36l2-.18.17,0q0,.88,0,1.75l-2.2.12Zm1.61-7a3.32,3.32,0,0,1,.6,2.2h-.14l-2,.18,0-2.71A2.42,2.42,0,0,1,420,582Z" transform="translate(-408.84 -368.84)"/><path class="cls-1" d="M416.56,594.68a1.48,1.48,0,0,0-2-.53,1.53,1.53,0,0,0-.53,2l1,2.3a1.48,1.48,0,0,0,2,.53,1.53,1.53,0,0,0,.53-2Z" transform="translate(-408.84 -368.84)"/><path class="cls-1" d="M420.84,594.73a1.49,1.49,0,0,0-2-.53,1.51,1.51,0,0,0-.53,2l1.25,2.33a1.49,1.49,0,0,0,2,.53,1.51,1.51,0,0,0,.53-2Z" transform="translate(-408.84 -368.84)"/><path class="cls-1" d="M424.17,594.26a1.48,1.48,0,1,0-2.55,1.49l1.43,2.66a1.48,1.48,0,0,0,2.55-1.49Z" transform="translate(-408.84 -368.84)"/><path class="cls-1" d="M424.51,575.87a57.44,57.44,0,0,1,9.45-.93c1.9,0,1.91-3,0-3-1.12,0-2.24.07-3.35.15a1.37,1.37,0,0,0-.37-1.4l-.27-.27,0,0-.06-.1-.1-.17,0-.09-.07-.22a1.48,1.48,0,1,0-2.85.79,4.57,4.57,0,0,0,.91,1.75q-2,.24-4,.61C421.86,573.36,422.65,576.21,424.51,575.87Zm5.51-5.32,0-.06Z" transform="translate(-408.84 -368.84)"/><path class="cls-1" d="M434.31,581.95a1.58,1.58,0,0,0,.19-.62c.18-1.66.35-4.6-1.42-5.49a5.06,5.06,0,0,0-2.86-.14,16.71,16.71,0,0,0-3.11.69,1.45,1.45,0,0,0-.76.55,1.69,1.69,0,0,0-.64,1.21,12.94,12.94,0,0,0,.13,3.19,1.45,1.45,0,0,0,1.29,2.11l1.81,0a1.6,1.6,0,0,0,0,.18,56,56,0,0,0,.73,6.81,14.5,14.5,0,0,1,.07,3,7.18,7.18,0,0,1-.38,1.74l-.28.65-.12.15c-1.52-.31-2.66,1.91-1.09,2.69,3,1.47,4.42-2.14,4.75-4.48.5-3.56-.75-7-.71-10.58a1.6,1.6,0,0,0,0-.22h1A1.41,1.41,0,0,0,434.31,581.95Zm-2.58-3.45Zm-.32,0h.07c0,.22.1.48.12.68a10,10,0,0,1,0,1.21l-2.93,0a8.66,8.66,0,0,1-.07-1.42C429.54,578.82,430.46,578.72,431.41,578.55Z" transform="translate(-408.84 -368.84)"/><path class="cls-1" d="M428.1,592.49l.67-2.13a1.49,1.49,0,0,0-1-1.82,1.51,1.51,0,0,0-1.82,1l-.67,2.13a1.49,1.49,0,0,0,1,1.82A1.51,1.51,0,0,0,428.1,592.49Z" transform="translate(-408.84 -368.84)"/><path class="cls-1" d="M438.56,590.23q-1.43-1.2-2.74-2.53c-1.33-1.36-3.42.73-2.09,2.09q1.31,1.33,2.74,2.53a1.52,1.52,0,0,0,2.09,0A1.49,1.49,0,0,0,438.56,590.23Z" transform="translate(-408.84 -368.84)"/><path class="cls-1" d="M448.59,577.59a17.67,17.67,0,0,0,.7-2.24,1.52,1.52,0,0,0,.53-.07,17.81,17.81,0,0,1,3.92-.81c0,.32.07.64.08,1,0,.66,0,1.33,0,2a35.2,35.2,0,0,0-5,1.21A1.45,1.45,0,0,0,447,580l-.12,10a3.33,3.33,0,0,0,1.8,2.32l11.18-.19a28.38,28.38,0,0,1,2.13-.88c1.21-1.35.36-4.21.23-5.86-.17-2.19-.27-4.69-1.44-6.62-.95-1.56-2.43-1.83-4-1.75.11-1.74.19-4.18-1.36-5.15a4.14,4.14,0,0,0-2.87-.27,21.36,21.36,0,0,0-2.79.57c0-.24,0-.49,0-.73.05-1.9-2.9-1.9-3,0a15.89,15.89,0,0,1-1.09,5.32C445.05,578.58,447.91,579.35,448.59,577.59Zm10.74,8.15c.09,1.13.29,2.33.32,3.49l-3.76.07q-.16-1.4-.29-2.8l2.56-.19a1.45,1.45,0,0,0,1.16-.68Zm-6.38,3.61-3.05.05,0-2.49,2.75-.2Q452.79,588,452.94,589.34Zm-3-5.4,0-2.56q1.08-.34,2.17-.61.11,1.5.24,3Zm8.52-3.25a7.6,7.6,0,0,1,.72,3,1.26,1.26,0,0,0-1-.36l-2.83.21q-.15-1.7-.26-3.4C456.35,579.88,457.93,579.7,458.47,580.69Z" transform="translate(-408.84 -368.84)"/><path class="cls-1" d="M447.79,594.64a1.52,1.52,0,0,0-1.48,1.48l-.18,2.3a1.49,1.49,0,0,0,1.48,1.48,1.52,1.52,0,0,0,1.48-1.48l.18-2.3A1.49,1.49,0,0,0,447.79,594.64Z" transform="translate(-408.84 -368.84)"/><path class="cls-1" d="M453.73,595.29a1.49,1.49,0,0,0-1.82-1,1.51,1.51,0,0,0-1,1.82,8.85,8.85,0,0,0,2,4.11,1.49,1.49,0,0,0,2.09,0,1.51,1.51,0,0,0,0-2.09A5.93,5.93,0,0,1,453.73,595.29Z" transform="translate(-408.84 -368.84)"/><path class="cls-1" d="M459.13,595.5a1.48,1.48,0,0,0-2.55,1.49l1.72,2.85a1.48,1.48,0,0,0,2.55-1.49Z" transform="translate(-408.84 -368.84)"/><path class="cls-1" d="M465.12,597.57a6.16,6.16,0,0,1-1.23-2,1.52,1.52,0,0,0-1.82-1,1.49,1.49,0,0,0-1,1.82,9.42,9.42,0,0,0,2,3.3,1.48,1.48,0,0,0,2.09-2.09Z" transform="translate(-408.84 -368.84)"/><path class="cls-1" d="M491.91,591.58c-1.6-1.53-5-1.29-7-1.31a38.84,38.84,0,0,0-7.26.66q0-.44,0-.88h.1a56.87,56.87,0,0,1,8.32-.73c1.9,0,1.91-3,0-3a61.85,61.85,0,0,0-8.38.72q0-1.08,0-2.16,4.29-.15,8.55-.64a1.63,1.63,0,0,0,1.37-2,1.45,1.45,0,0,0,.29-.85,56.69,56.69,0,0,0,0-5.81,2.88,2.88,0,0,0-1.58-2.78c-1.26-.52-2.84,0-4.14.18l-4.22.61a2.22,2.22,0,0,1,.18-.6c.36-.73,1.59-1.06,2.3-1.4l2.92-1.41c1.71-.83.22-3.38-1.49-2.55s-4.28,1.58-5.72,3-1.15,4.07-1.22,6q-.29,7.43-.31,14.87h0v.78a1.39,1.39,0,0,0,.31.91,1.46,1.46,0,0,0,1.72.92,36.3,36.3,0,0,1,10.36-.83,7.52,7.52,0,0,1,2.36.25c.65.3.6.74.64,1.43s.23,2.66-.39,3.38c-1.14.35-1.75,2-.4,2.63C493.38,602.85,494,593.57,491.91,591.58Zm-14.09-11.25,7.18-.07c0,.4,0,.8,0,1.2h0q-3.59.38-7.19.5Q477.79,581.15,477.82,580.33Zm6.72-4.66.44-.05v0a4.62,4.62,0,0,0,0,1.65l-7.09.07c0-.25,0-.5,0-.74l2.94-.43A21.9,21.9,0,0,0,484.54,575.68Z" transform="translate(-408.84 -368.84)"/><path class="cls-1" d="M487.86,595.23c-1-1.62-3.55-.14-2.55,1.49.61,1,.11.83-.81.82H484L483.8,595a1.51,1.51,0,0,0-1.48-1.48,1.49,1.49,0,0,0-1.48,1.48l.15,2.47-1.07,0q-.52,0-1-.07a1,1,0,0,0-.21-.11c.7-1.22-.59-3-1.94-2.06a2.62,2.62,0,0,0-.65,3.82c1.19,1.57,3.53,1.4,5.28,1.42s4.7.6,6.23-.47C489.3,598.82,488.76,596.72,487.86,595.23Z" transform="translate(-408.84 -368.84)"/><path class="cls-1" d="M512.84,587.44a5.05,5.05,0,0,0-3.93-1.37q.06-3.11.08-6.22l2.8-.16c1.89-.11,1.9-3.06,0-3l-2.79.16q0-2.61,0-5.22a1.48,1.48,0,0,0-3,0q0,2.69,0,5.39l-4.11.23c-1.89.11-1.9,3.06,0,3L506,580q0,3.19-.09,6.38c-.94.17-1.82.38-2.55.53a2,2,0,0,0-1.29,1.79l.56,6.69v0a1.5,1.5,0,0,0,1.36,2q4.19.16,8.38-.07a1.45,1.45,0,0,0,1.39-1.22,2.09,2.09,0,0,0,.15-.3c.49-1.25.19-3.3.12-4.64A5.93,5.93,0,0,0,512.84,587.44Zm-7.23,7.07a1.5,1.5,0,0,0-.09-.23l-.39-4.67c.82-.15,1.64-.27,2.47-.35s2.5-.48,3.16.32a4.11,4.11,0,0,1,.37,2.29,22.77,22.77,0,0,1,.1,2.58Q508.41,594.56,505.61,594.51Z" transform="translate(-408.84 -368.84)"/><path class="cls-1" d="M528.92,596.27a1.5,1.5,0,0,0-1.25-1.45c.08-.26-1-1-1.17-1.18l-1.29-1.21a32.17,32.17,0,0,1-2.46-2.48l-.33-.42a42.13,42.13,0,0,0,2.72-10.62l.66,0c1.89-.1,1.9-3.06,0-3q-4,.22-8.06.31.45-1.75.79-3.53c.35-1.86-2.5-2.66-2.85-.79a55.34,55.34,0,0,1-2.72,9.59c-.69,1.8,2.14,2.51,2.85.79l.18-.44a1.59,1.59,0,0,0,.09-.3q.43-1.17.8-2.35,2.64-.05,5.29-.16a37.49,37.49,0,0,1-1.71,7.34,34.83,34.83,0,0,1-1.41-3.29c-.66-1.77-3.52-1-2.85.79a32,32,0,0,0,2.87,6,39.56,39.56,0,0,1-2.68,4.92c-1,1.61,1.53,3.09,2.55,1.49a40.8,40.8,0,0,0,2.14-3.79c1,1.07,2.06,2,3.12,3,.86.81,1.95,2.35,3.25,2.34a1.5,1.5,0,0,0,1.48-1.48Z" transform="translate(-408.84 -368.84)"/><path class="cls-1" d="M555.71,587.77l-1.73.08a5.1,5.1,0,0,0-.41-2.14c-.73-1.58-2.46-1.71-4-1.85a25.59,25.59,0,0,0-2.77-.1q0-.7-.07-1.39l4.61-.34a1.47,1.47,0,0,0,1.31-.33,1.58,1.58,0,0,0,.6-1.08,4.28,4.28,0,0,0,.08-.66,8.75,8.75,0,0,0-.11-3.06c-.53-1.54-2.77-1.69-4.12-1.84a24.33,24.33,0,0,0-2.84-.15c0-.34,0-.68-.08-1,1.2-.06,2.41-.11,3.61-.15,1.9-.05,1.91-3,0-3-1.29,0-2.58.09-3.87.16q-.11-1.24-.24-2.47c-.2-1.87-3.16-1.89-3,0q.14,1.33.26,2.66-3,.22-6,.55c-1.87.21-1.89,3.17,0,3q3.12-.35,6.25-.57c0,.32,0,.65.07,1-2.1.18-4.19.5-6.23.81a1.46,1.46,0,0,0-2.15,1.28,17.56,17.56,0,0,0,.55,4.17,1.6,1.6,0,0,0,.13.35,1.29,1.29,0,0,0,1.41,1.46l6.73-.5q0,.68.06,1.35c-2.38.24-4.75.69-7.08,1.15-1.87.36-1.08,3.21.79,2.85,2.13-.41,4.26-.82,6.42-1,0,.47,0,.94.06,1.41l-6.75.31c-1.9.09-1.91,3,0,3l6.85-.31,0,.54c0,.06,0,.16,0,.3-1.43.1-2.87.15-4.3.16a1.48,1.48,0,0,0,0,3q2.19,0,4.36-.17c-.07,1.66-.38,3.22-1.4,2.68-1.68-.89-3.18,1.67-1.49,2.55a3.87,3.87,0,0,0,5.35-2,7.94,7.94,0,0,0,.53-3.48l1.67-.19c2.26-.3,4.58-.61,4.82-3.32a1.48,1.48,0,0,0,0-.44l2-.09C557.6,590.64,557.61,587.68,555.71,587.77ZM549.29,578a10,10,0,0,1,1.31.21c-.18.1-.28.54-.28.9l-3.74.28q0-.77-.09-1.53A16.29,16.29,0,0,1,549.29,578Zm-11,2c-.1-.45-.18-.91-.24-1.36,1.83-.26,3.67-.48,5.52-.62q.05.79.1,1.59Zm8.67,6.68a20.91,20.91,0,0,1,3.26.16c1,.14.56,0,.78.7a1.6,1.6,0,0,1,.07.41l-4.05.19Q547,587.44,546.93,586.72Zm.2,5.16,0-.75,3.7-.17a1.66,1.66,0,0,0-.06.31C550.72,591.53,548.7,591.75,547.13,591.88Z" transform="translate(-408.84 -368.84)"/><path class="cls-1" d="M567.17,572.72a35.3,35.3,0,0,0,4.4,2.3c1.73.75,3.23-1.79,1.49-2.55a35.29,35.29,0,0,1-4.65-2.46c0-1.4-2-2.33-2.69-.82l-.2.42a1.74,1.74,0,0,0-.29.57,12.35,12.35,0,0,1-3.42,4.11,1.53,1.53,0,0,0-.53,2,1.49,1.49,0,0,0,2,.53A16.2,16.2,0,0,0,567.17,572.72Z" transform="translate(-408.84 -368.84)"/><path class="cls-1" d="M569.81,575.35l-3.94.33a1.52,1.52,0,0,0-1.48,1.48,1.49,1.49,0,0,0,1.48,1.48l3.94-.33a1.52,1.52,0,0,0,1.48-1.48A1.49,1.49,0,0,0,569.81,575.35Z" transform="translate(-408.84 -368.84)"/><path class="cls-1" d="M573,596.62l-.41-.66-.95-1.52c-1-1.61-3.56-.13-2.55,1.49v0l-.13.11c-.88.8-2.77,1.57-3-.08-.16-1.29-.16-2.63-.21-3.93a21.51,21.51,0,0,0,6.8-.47,1.66,1.66,0,0,0,1.26-1.62,1.64,1.64,0,0,0-.21-.73v-.8a1.55,1.55,0,0,0,.15-.57c.13-2,.78-6-1.47-7.11a7,7,0,0,0-3.39-.31,23.52,23.52,0,0,0-4.3.67,1.3,1.3,0,0,0-1,1.07,1.36,1.36,0,0,0-.9,1.32c0,2.37,0,4.73.07,7.1a35.48,35.48,0,0,0,.38,6.43c.83,3.72,5,3.33,7.5,1.45l.28.42a1.84,1.84,0,0,0,1.92.86,1.65,1.65,0,0,0,1.34-1.69A1.52,1.52,0,0,0,573,596.62Zm-7.3-7.53c0-.38,0-.76,0-1.14a44.72,44.72,0,0,1,5-.1l0,1.1A19.16,19.16,0,0,1,565.66,589.09Zm5.09-5.7.09,0a7.61,7.61,0,0,1,0,1.3c0,.06,0,.12,0,.18a44.72,44.72,0,0,0-5.26.1q0-.54,0-1.08C567.17,583.53,569.22,583,570.75,583.39Z" transform="translate(-408.84 -368.84)"/><polygon class="cls-1" points="173.63 200.62 173.62 200.61 173.62 200.62 173.63 200.62"/><path class="cls-1" d="M588.05,571.1a16.7,16.7,0,0,0-4.07.26,1.54,1.54,0,0,0-1.08-1.51c.31.12.05,0,0,0l-.18-.12-.08-.07-.17-.18c.06.07.07.11,0,0l0,0,0,0h0l-.15-.25,0,0c0-.11-.06-.21-.09-.32a1.49,1.49,0,0,0-1.82-1,1.51,1.51,0,0,0-1,1.82,4.12,4.12,0,0,0,1.33,2.19c-.72.12-1.44.24-2.16.38l.34-1.94c.33-1.86-2.52-2.66-2.85-.79l-1.13,6.38c-.33,1.86,2.52,2.66,2.85.79l.27-1.54a1.53,1.53,0,0,0,.79,0c2.32-.45,4.65-.79,7-1,.58-.05,1.78-.35,2.1.09s0,3-.09,3.68a1.59,1.59,0,0,0,0,.35,2,2,0,0,0-1.3-.8,14.21,14.21,0,0,0-7.62.83l-.09,0a1.34,1.34,0,0,0-1.23,1.41q.18,8.9-.38,17.79a1.54,1.54,0,0,0-.07.45v.78a1.35,1.35,0,0,0,1.45,1.42,1.43,1.43,0,0,0,.69.14q4.29-.12,8.55-.55a1.62,1.62,0,0,0,1.33-2.14,1.43,1.43,0,0,0,.15-.69c0-1.51-.06-3-.11-4.53a3.41,3.41,0,0,0-1.2-2.94,4.7,4.7,0,0,0-3.16-.57,28.18,28.18,0,0,0-4.31.69q0-1.54.06-3.08a42.27,42.27,0,0,0,6.14-.49,1.16,1.16,0,0,0,1.06-1.28,1.39,1.39,0,0,0,.36-.95,40.86,40.86,0,0,0,.06-4.41,3.08,3.08,0,0,0-.1-.52,1.56,1.56,0,0,0,2.68-.94C590.95,575.32,591.51,571.49,588.05,571.1Zm-5.77-1.94c-.05-.11,0-.14,0,0Zm3,11.05a25,25,0,0,1-.12,3,36.65,36.65,0,0,1-4.62.29q0-1.35,0-2.7A10.91,10.91,0,0,1,585.32,580.21Zm-4.58,12.35a26.35,26.35,0,0,1,2.79-.57c.51-.07,2.25-.47,2.67-.19a9.71,9.71,0,0,1,.07,2.2l.07,2.93v0q-3.08.27-6.17.38.15-2.36.24-4.72A1.66,1.66,0,0,0,580.73,592.56Z" transform="translate(-408.84 -368.84)"/><path class="cls-1" d="M420,623.74l-4.34-.05-1.36,0a41.59,41.59,0,0,0,4.94-5.92c.7-1-.27-2.12-1.28-2.23a38.71,38.71,0,0,0-7.63-.07c-1.88.17-1.9,3.13,0,3a38.74,38.74,0,0,1,4.85-.13,38.64,38.64,0,0,1-5.32,5.45,1.48,1.48,0,0,0,0,2.09c1.26,1,2.71.78,4.24.8l5.89.07A1.48,1.48,0,0,0,420,623.74Z" transform="translate(-408.84 -368.84)"/><path class="cls-1" d="M438.86,625.83l-2.14-7.44c-.52-1.82-1.44-3.67-3.71-3.1-1.83.45-2.86,2.54-3.64,4.06a24.72,24.72,0,0,0-2.29,6.67c-.36,1.86,2.49,2.66,2.85.79q.24-1.27.61-2.52h.22l4.43-.48.81,2.81A1.48,1.48,0,0,0,438.86,625.83Zm-5.67-7.13c.7-.63.54,0,.76.78l.42,1.46-2.71.3A7.45,7.45,0,0,1,433.19,618.7Z" transform="translate(-408.84 -368.84)"/><path class="cls-1" d="M453.44,615.54l-8,.64c-1.88.15-1.9,3.11,0,3l2.92-.23-.1,7.72a1.23,1.23,0,0,0-.11,1.17l.08.54c0,1.92,2.85,1.89,3,0a4.34,4.34,0,0,0,0-.46l.12-9.22,1-.08a1.52,1.52,0,0,0,.4,0l.7-.09C455.28,618.27,455.37,615.39,453.44,615.54Z" transform="translate(-408.84 -368.84)"/><path class="cls-1" d="M461.88,617.74c-.4,2.44-.65,5,.27,7.31.75,1.92,2.41,3.95,4.65,4s4.13-1.88,5.05-3.81a15.71,15.71,0,0,0,1.06-7.37c-.06-1.9-3-1.91-3,0,.07,2.4.29,6.78-2.45,8-1.54.7-2.51-1.4-2.82-2.58a11.61,11.61,0,0,1,.05-4.77c.3-1.86-2.55-2.66-2.85-.79Z" transform="translate(-408.84 -368.84)"/><path class="cls-1" d="M489.34,617.44a6.86,6.86,0,0,0-9.3.86,1.55,1.55,0,0,0-.32.51,5.59,5.59,0,0,0-.21,7c2.31,3,7.12,2.39,9.88.37C492.56,623.92,492.32,619.76,489.34,617.44Zm-1.74,6.44c-1.35,1-4.15,1.69-5.51.43-1.54-1.43-.61-3.59.92-4.54a1.55,1.55,0,0,0,.41-.36,3.68,3.68,0,0,1,3.26-.16C488.66,620.11,489.61,622.44,487.6,623.87Z" transform="translate(-408.84 -368.84)"/><path class="cls-1" d="M514.93,615.54c-2.4-2.25-8-1.06-8.69,2.41-.41,2,1,3.59,2.56,4.52.65.38,2.53.93,2.62,1.78.16,1.44-2.68,1-3.48.94-1.9-.07-1.9,2.89,0,3s3.65.22,5.12-.94a3.39,3.39,0,0,0,1-4.23c-.82-1.74-2.5-2.21-4-3.19-1.08-.71-1.15-1.52,0-2.05.73-.33,2.07-.72,2.73-.1,1.39,1.3,3.48-.79,2.09-2.09Z" transform="translate(-408.84 -368.84)"/><path class="cls-1" d="M532.87,615a54.33,54.33,0,0,0-9.23.17c-1.87.19-1.89,3.15,0,3q1.85-.19,3.69-.26.24,4.93.69,9.85c.17,1.88,3.13,1.9,3,0q-.46-4.93-.69-9.88,1.29,0,2.58.11C534.77,618.1,534.76,615.14,532.87,615Z" transform="translate(-408.84 -368.84)"/><path class="cls-1" d="M543.37,618.31l-.05,0a5.21,5.21,0,0,0-1.38,7.89c2.27,2.79,6.57,3,9.47,1.09C558.28,622.75,549.19,613.45,543.37,618.31Zm6.14,6.72a4.4,4.4,0,0,1-4.85-.21,2.32,2.32,0,0,1,.28-4,1.43,1.43,0,0,0,.52-.43h0c1.37-1.15,3.25-.49,4.41.62C551.28,622.39,551.29,624,549.51,625Z" transform="translate(-408.84 -368.84)"/><path class="cls-1" d="M571.62,629.7l-1.93-7.58a1.57,1.57,0,0,0-.15-.39,3.88,3.88,0,0,0,1.73-4c-.66-4.33-5.62-4.76-9-3.9a1.55,1.55,0,0,0-.44.18,1.44,1.44,0,0,0-1,1.34q-.35,6.59-.35,13.18s0,0,0,.07v1.09a1.48,1.48,0,0,0,3,0q0-3.16.06-6.31a16,16,0,0,0,3.39-.45v0l1.69,6.63a1.66,1.66,0,0,0,.05.28l.19.67A1.48,1.48,0,0,0,571.62,629.7Zm-7.94-13.2c1.69-.32,4.35-.43,4.67,1.62s-3.39,2.22-4.83,2.27Q563.59,618.45,563.68,616.5Z" transform="translate(-408.84 -368.84)"/><path class="cls-1" d="M587.78,615.25c-.16-1.88-3.11-1.9-3,0,.1,1.25-.31,3.32-2,3.14s-2.05-2.43-2.38-3.63a1.48,1.48,0,0,0-2.85.79c.62,2.27,1.78,4.89,4.07,5.61l0,7.41a1.5,1.5,0,0,0-.07.87l.13.67c.33,1.66,2.91,1.25,2.9-.39l0-8.67A5.63,5.63,0,0,0,587.78,615.25Z" transform="translate(-408.84 -368.84)"/></svg>
