<svg id="layout_1" data-name="layout 1" xmlns="http://www.w3.org/2000/svg" viewBox="0 0 182 182"><defs><style>.cls-1{fill:#fff;}</style></defs><title>LOGO</title><path class="cls-1" d="M573,426.35a57.85,57.85,0,0,0-5.26-5.07,273.43,273.43,0,0,1,10.89-47.64,1.66,1.66,0,0,0,0-1.18,1.56,1.56,0,0,0-1.3-1.35,86.88,86.88,0,0,0-42.52,1.16c-3.12.89-6.42,1.88-8.89,4-2.39-2.14-5.58-3.16-8.64-4a86.89,86.89,0,0,0-43-1.28,1.56,1.56,0,0,0-1.3,1.35,1.66,1.66,0,0,0,0,1.19,273,273,0,0,1,11.36,51.33,79.65,79.65,0,0,0-11,11.66,85.2,85.2,0,0,0-8.92,14.25c-3.26,6.65-5.82,14.9-7.87,22.64a2.41,2.41,0,0,0,1.83,3c11,2.35,22,5.13,33.13,4.32a15.25,15.25,0,0,0,5.07-1,12.14,12.14,0,0,0,5.93-7.19,11,11,0,0,0-2.14-9.47c-.94-1.14-2.21-2.39-1.1-4l.15-.16c1.4-1.24,3.15-.92,4.72-1.42,3.54-1.13,4.51-5.84,3.59-9.44s-3.06-6.87-3.47-10.57a6.09,6.09,0,0,1,.39-3.26c1.21-2.58,4.56-3.16,7.41-3.41l13.85-1.19c2.54-.22,5.55-.75,6.38-3.3a4.16,4.16,0,0,0-.19-2.9c-1-2.44-3.54-3.7-5.65-4.92a27.26,27.26,0,0,0-8.38-3.21,7,7,0,0,1-3.23-1.62,6.85,6.85,0,0,1-2.21-4.59l.08-7.77a.9.9,0,0,0-.9-.9H500.71a.9.9,0,0,0-.9.9v8.1h-8.1a.9.9,0,0,0-.9.9v9.56c-1.06.74-2.09,1.51-3.1,2.31a277.1,277.1,0,0,0-10.63-47.94,84,84,0,0,1,24.22-1.23,81.17,81.17,0,0,1,12.83,2.28c3.67,1,7.91,1.86,10.4,5l0,0a1.57,1.57,0,0,0,2.6.14c2.41-3,6.41-3.9,10-4.84a81.24,81.24,0,0,1,13.27-2.4,84,84,0,0,1,24.22,1.23,276.73,276.73,0,0,0-10.14,44.36,61.47,61.47,0,0,0-12.7-7.18v-7.69a.9.9,0,0,0-.9-.9h-8.1v-8.1a.9.9,0,0,0-.9-.9H530.72a.9.9,0,0,0-.9.9v11.41a2.13,2.13,0,0,0,.35,1.17c.86,1.32,3.53,4.62,10.23,8.53a123,123,0,0,1,16.87,11.77c2.32,1.94,5,4.54,3.23,7.9a5.87,5.87,0,0,1-3.9,3,42.24,42.24,0,0,1-18.43.16c-5.84-1.26-11.88-3.75-17.56-1.92-2.72.87-5.36,3.35-4.84,6.16a6.8,6.8,0,0,0,1.57,2.93c5.06,6.26,13.77,8.11,17.37,15.31,1.62,3.23-.88,4.05-1.89,3.9-5-.72-9.46-3.19-14.32-4.39-2.2-.54-4.86-.68-6,2.08a5.37,5.37,0,0,0-.2,3.08A37.57,37.57,0,0,0,517.23,478a3.81,3.81,0,0,1-.05,4.21c-1.33,1.86-3.83,2.72-6.1,3a150,150,0,0,1-21.9,1.22,226.54,226.54,0,0,1-33.38-3.48,1.73,1.73,0,0,0-2,1.31c-1.59,6.7-2.76,11.72-3.69,12.83-3.35,4-9.89,3.56-14.68,1.53s-6.93-5.32-11.38-8c-3.44-2.09-9.37-1.52-8.6,7a26.54,26.54,0,0,0,2.87,9.71,41.3,41.3,0,0,0,17,17.39,25.88,25.88,0,0,0,9.74,3.27,19.31,19.31,0,0,0,6.3-.55,1.28,1.28,0,0,1,1.56.94,15.47,15.47,0,0,0,1.89,4.81,24.87,24.87,0,0,0,6.58,6.56,41.27,41.27,0,0,0,24.1,7.64c3.4,0,7.73-.45,10.82-1.89,3.33-1.56,8.22-7.73,3-10.64-4.37-2.43-9.6-3.21-13.55-6.26a11,11,0,0,1-4.19-8.39c-1-28.78,34.26-22.35,38.8-14.36l3.1,6.87c2.82,6.14,8,5.86,11.54,1.35l10.14-11.14a3.71,3.71,0,0,1,1.13-1c3.89-2.16,16.92-5.35,22.88-10.44,8.13-6.94,13-17.14,14.41-27.73C586.52,442.06,575.89,429.5,573,426.35Z" transform="translate(-408.84 -368.84)"/></svg>
